<svg xmlns="http://www.w3.org/2000/svg" width="256" height="256" viewBox="0 0 100 100"><rect width="100" height="100" rx="20" fill="#ff5851"></rect><path fill="#ffffff" d="M15.38 71L9.26 71Q8.60 71 8.18 70.58Q7.76 70.16 7.76 69.50L7.76 69.50L7.76 30.50Q7.76 29.84 8.18 29.42Q8.60 29 9.26 29L9.26 29L14.90 29Q15.80 29 16.25 29.48Q16.70 29.96 16.82 30.20L16.82 30.20L27.92 50.48L39.02 30.20Q39.14 29.96 39.59 29.48Q40.04 29 40.94 29L40.94 29L46.52 29Q47.18 29 47.60 29.42Q48.02 29.84 48.02 30.50L48.02 30.50L48.02 69.50Q48.02 70.16 47.60 70.58Q47.18 71 46.52 71L46.52 71L40.40 71Q39.80 71 39.38 70.58Q38.96 70.16 38.96 69.50L38.96 69.50L38.96 45.32L31.34 59.54Q31.10 60.08 30.62 60.50Q30.14 60.92 29.30 60.92L29.30 60.92L26.48 60.92Q25.70 60.92 25.22 60.50Q24.74 60.08 24.44 59.54L24.44 59.54L16.88 45.32L16.88 69.50Q16.88 70.16 16.46 70.58Q16.04 71 15.38 71L15.38 71ZM73.76 71.60L73.76 71.60Q68.12 71.60 64.13 69.71Q60.14 67.82 57.95 64.19Q55.76 60.56 55.58 55.40L55.58 55.40Q55.52 52.82 55.52 49.88Q55.52 46.94 55.58 44.30L55.58 44.30Q55.76 39.26 57.95 35.72Q60.14 32.18 64.19 30.29Q68.24 28.40 73.76 28.40L73.76 28.40Q78.20 28.40 81.56 29.54Q84.92 30.68 87.23 32.51Q89.54 34.34 90.71 36.50Q91.88 38.66 91.94 40.70L91.94 40.70Q91.94 41.24 91.58 41.60Q91.22 41.96 90.62 41.96L90.62 41.96L83.18 41.96Q82.58 41.96 82.25 41.72Q81.92 41.48 81.68 41L81.68 41Q81.26 39.98 80.33 38.84Q79.40 37.70 77.84 36.95Q76.28 36.20 73.76 36.20L73.76 36.20Q69.98 36.20 67.79 38.18Q65.60 40.16 65.42 44.60L65.42 44.60Q65.24 49.76 65.42 55.10L65.42 55.10Q65.60 59.72 67.88 61.76Q70.16 63.80 73.88 63.80L73.88 63.80Q76.34 63.80 78.29 62.93Q80.24 62.06 81.38 60.23Q82.52 58.40 82.52 55.52L82.52 55.52L82.52 54.02L75.98 54.02Q75.38 54.02 74.96 53.57Q74.54 53.12 74.54 52.52L74.54 52.52L74.54 48.68Q74.54 48.02 74.96 47.60Q75.38 47.18 75.98 47.18L75.98 47.18L90.74 47.18Q91.40 47.18 91.82 47.60Q92.24 48.02 92.24 48.68L92.24 48.68L92.24 55.22Q92.24 60.38 89.96 64.04Q87.68 67.70 83.51 69.65Q79.34 71.60 73.76 71.60Z"></path></svg>