<svg xmlns="http://www.w3.org/2000/svg" width="645" height="802" fill="none"><path fill="#0F0F0F" d="M37 791s28.97 9 28.97-57.98C65.97 701.84 93.5-418 242.5 233.5c-54-124-94.13 303.98-119.43 459C97.77 847.52 37 791 37 791Z"/><path fill="#0F0F0F" d="M575.61 47.36c66.89 44.06-8.94 500.23-131.44 468.89C321.67 484.91 234 144.5 155.5 208.5c54-489.5 187.09 69.25 271.17 152.75 89.92-37.5 96.07-348.71 148.94-313.89Z"/><path fill="#0F0F0F" d="M644.85 239.92c0 35 1.04 66.5-15.84 114.5-13.12-49.5-27.12-141.96-45.01-72.92-32 123.5-54.75-165.08-27.82-232.08 58.5-44.5 88.67 132.5 88.67 190.5Z"/><path fill="#EC6459" d="M289 389.9c-5.17 18.8-55.9 84.52-145.7 84.52C114.04 474.42 0 449.8 0 423.84c0-25.94 54.93-38.51 143.3-15.63 51.2 13.25 135.37-33.34 145.7-18.3Z"/><ellipse cx="199" cy="64" fill="#0F0F0F" rx="63" ry="64"/></svg>